<svg width="23" height="25" viewBox="0 0 23 25" fill="none" xmlns="http://www.w3.org/2000/svg">
<g clip-path="url(#clip0_95_546)">
<path d="M3.5 1C3.5 1 1.73805 3.62572 1.55171 5.80435C1.37776 7.83823 1.55119 9.50774 3.52285 12.5C4.8092 14.4522 5.42042 15.9528 5.49453 17.7609C5.62069 20.8388 3.52285 24 3.52285 24" stroke="white" stroke-width="2.5"/>
<path d="M11.5 1C11.5 1 9.73805 3.62572 9.55171 5.80435C9.37776 7.83823 9.55119 9.50774 11.5229 12.5C12.8092 14.4522 13.4204 15.9528 13.4945 17.7609C13.6207 20.8388 11.5229 24 11.5229 24" stroke="white" stroke-width="2.5"/>
<path d="M19.5 1C19.5 1 17.738 3.62572 17.5517 5.80435C17.3778 7.83823 17.5512 9.50774 19.5229 12.5C20.8092 14.4522 21.4204 15.9528 21.4945 17.7609C21.6207 20.8388 19.5229 24 19.5229 24" stroke="white" stroke-width="2.5"/>
</g>
<defs>
<clipPath id="clip0_95_546">
<rect width="23" height="25" fill="white"/>
</clipPath>
</defs>
</svg>
