<svg width="40" height="40" viewBox="0 0 40 40" fill="none" xmlns="http://www.w3.org/2000/svg">
<path d="M29.2694 16.5763C29.2694 10.3335 23.8235 5.28609 17.4479 6.08304C12.799 6.61435 8.94702 10.3335 8.15007 14.9824C7.48594 18.9672 9.07985 22.6863 11.8692 24.9443C12.6662 25.6085 13.3303 26.6711 13.3303 27.7337V28.6635C13.3303 30.1246 14.5257 31.32 15.9868 31.32H21.2998C22.7609 31.32 23.9564 30.1246 23.9564 28.6635V27.7337C23.9564 26.6711 24.4877 25.6085 25.4175 24.9443C27.8083 22.8191 29.2694 19.897 29.2694 16.5763Z" stroke="white" stroke-width="2" stroke-miterlimit="10" stroke-linecap="round" stroke-linejoin="round"/>
<path d="M14.6592 35.8433H22.6287" stroke="white" stroke-width="2" stroke-miterlimit="10" stroke-linecap="round" stroke-linejoin="round"/>
<path d="M18.6436 16.5762V27.2023" stroke="white" stroke-width="2" stroke-miterlimit="10" stroke-linecap="round" stroke-linejoin="round"/>
<path d="M14.6592 13.9197L18.644 16.5762L22.6287 13.9197" stroke="white" stroke-width="2" stroke-miterlimit="10" stroke-linecap="round" stroke-linejoin="round"/>
</svg>
