<svg width="24" height="24" viewBox="0 0 24 24" fill="none" xmlns="http://www.w3.org/2000/svg">
<path d="M11.9896 11.891C13.621 11.891 15.0952 11.2172 16.1566 10.147C17.2181 9.07678 17.8864 7.59041 17.8864 5.94549C17.8864 4.30057 17.2181 2.8142 16.1566 1.74401C15.0952 0.673822 13.621 0 11.9896 0C10.3581 0 8.88392 0.673822 7.8225 1.74401C6.76108 2.8142 6.09277 4.30057 6.09277 5.94549C6.09277 7.59041 6.76108 9.07678 7.8225 10.147C8.88392 11.2172 10.3778 11.891 11.9896 11.891ZM10.1026 4.02312C10.594 3.52766 11.2623 3.23038 11.9896 3.23038C12.7365 3.23038 13.4048 3.52766 13.8765 4.02312C14.3679 4.51857 14.6628 5.1924 14.6628 5.92567C14.6628 6.67877 14.3679 7.35259 13.8765 7.82823C13.3851 8.32369 12.7168 8.62096 11.9896 8.62096C11.2426 8.62096 10.5743 8.32369 10.1026 7.82823C9.6112 7.33277 9.31636 6.65895 9.31636 5.92567C9.31636 5.1924 9.63085 4.51857 10.1026 4.02312Z" fill="#071C84"/>
<path d="M19.9306 14.2889L18.2008 11.9107C18.1025 11.772 17.906 11.7521 17.7881 11.871C16.1566 13.2781 14.1517 14.1898 11.9895 14.1898C9.82738 14.1898 7.82246 13.2781 6.19102 11.871C6.07308 11.772 5.87652 11.7918 5.77824 11.9107L4.04851 14.2889C3.96989 14.4078 3.98955 14.5663 4.08783 14.6654C5.54237 15.8545 7.23278 16.6671 9.00182 17.0833L5.34581 23.5837C5.24753 23.762 5.38512 23.9998 5.58168 23.9998H9.15907C9.27701 23.9998 9.37529 23.9404 9.4146 23.8215L11.9699 18.0742L14.5252 23.8215C14.5645 23.9206 14.6627 23.9998 14.7807 23.9998H18.3581C18.5743 23.9998 18.6922 23.7818 18.5939 23.5837L14.9379 17.0833C16.707 16.6671 18.3974 15.8743 19.8519 14.6654C20.0092 14.5663 20.0288 14.4078 19.9306 14.2889Z" fill="#071C84"/>
</svg>
