<svg width="27" height="37" viewBox="0 0 27 37" fill="none" xmlns="http://www.w3.org/2000/svg">
<path d="M13.0833 27.9997C18.6522 27.9997 23.1667 23.598 23.1667 18.1682C23.1667 12.7384 18.6522 8.33667 13.0833 8.33667C7.51446 8.33667 3 12.7384 3 18.1682C3 23.598 7.51446 27.9997 13.0833 27.9997Z" stroke="#071C84" stroke-width="2" stroke-miterlimit="10" stroke-linecap="round" stroke-linejoin="round"/>
<path d="M8.5 16.0955H17.6667" stroke="#071C84" stroke-width="2" stroke-miterlimit="10" stroke-linecap="round" stroke-linejoin="round"/>
<path d="M13.083 22.5153C13.8424 22.5153 14.458 21.8994 14.458 21.1396C14.458 20.3798 13.8424 19.7639 13.083 19.7639C12.3236 19.7639 11.708 20.3798 11.708 21.1396C11.708 21.8994 12.3236 22.5153 13.083 22.5153Z" fill="#071C84"/>
<path d="M7.58301 33.5025V29.834L9.41634 27.9998" stroke="#071C84" stroke-width="2" stroke-miterlimit="10" stroke-linecap="round" stroke-linejoin="round"/>
<path d="M16.75 27.9998L18.5833 29.834V33.5025" stroke="#071C84" stroke-width="2" stroke-miterlimit="10" stroke-linecap="round" stroke-linejoin="round"/>
<path d="M7.58301 2.99997V6.66845L9.41634 8.50269" stroke="#071C84" stroke-width="2" stroke-miterlimit="10" stroke-linecap="round" stroke-linejoin="round"/>
<path d="M16.75 8.50269L18.5833 6.66845V2.99997" stroke="#071C84" stroke-width="2" stroke-miterlimit="10" stroke-linecap="round" stroke-linejoin="round"/>
</svg>
