<svg width="40" height="41" viewBox="0 0 40 41" fill="none" xmlns="http://www.w3.org/2000/svg">
<path d="M25.2159 16.3407H8.57955C7.47045 16.3407 6.5 15.3703 6.5 14.2612C6.5 13.1521 7.47045 12.1816 8.57955 12.1816H25.2159C26.325 12.1816 27.2955 13.1521 27.2955 14.2612C27.2955 15.3703 26.325 16.3407 25.2159 16.3407Z" stroke="white" stroke-width="2" stroke-miterlimit="10" stroke-linecap="round" stroke-linejoin="round"/>
<path d="M16.8975 30.2045C12.7384 30.2045 9.27246 26.7385 9.27246 22.5795V16.3408H24.5225V22.5795C24.5225 26.7385 21.0566 30.2045 16.8975 30.2045Z" stroke="white" stroke-width="2" stroke-miterlimit="10" stroke-linecap="round" stroke-linejoin="round"/>
<path d="M12.0459 3.86353V12.1817" stroke="white" stroke-width="2" stroke-miterlimit="10" stroke-linecap="round" stroke-linejoin="round"/>
<path d="M21.75 3.86353V12.1817" stroke="white" stroke-width="2" stroke-miterlimit="10" stroke-linecap="round" stroke-linejoin="round"/>
<path d="M27.2954 30.8977C27.2954 33.5318 25.0772 35.75 22.4431 35.75C19.809 35.75 17.5908 33.5318 17.5908 30.8977" stroke="white" stroke-width="2" stroke-miterlimit="10" stroke-linecap="round" stroke-linejoin="round"/>
<path d="M27.2959 30.8977C27.2959 28.2636 29.5141 26.0454 32.1482 26.0454H37.0004" stroke="white" stroke-width="2" stroke-miterlimit="10" stroke-linecap="round" stroke-linejoin="round"/>
</svg>
